<?xml version="1.0" encoding="UTF-8" standalone="no"?>
<svg
   xmlns:dc="http://purl.org/dc/elements/1.1/"
   xmlns:cc="http://creativecommons.org/ns#"
   xmlns:rdf="http://www.w3.org/1999/02/22-rdf-syntax-ns#"
   xmlns:svg="http://www.w3.org/2000/svg"
   xmlns="http://www.w3.org/2000/svg"
   xmlns:sodipodi="http://sodipodi.sourceforge.net/DTD/sodipodi-0.dtd"
   xmlns:inkscape="http://www.inkscape.org/namespaces/inkscape"
   width="40"
   height="40"
   role="img"
   viewBox="0 0 24 24"
   version="1.1"
   id="svg3729"
   sodipodi:docname="linkedin.svg"
   inkscape:version="0.92.4 (5da689c313, 2019-01-14)">
  <metadata
     id="metadata3735">
    <rdf:RDF>
      <cc:Work
         rdf:about="">
        <dc:format>image/svg+xml</dc:format>
        <dc:type
           rdf:resource="http://purl.org/dc/dcmitype/StillImage" />
        <dc:title>LinkedIn icon</dc:title>
      </cc:Work>
    </rdf:RDF>
  </metadata>
  <defs
     id="defs3733" />
  <sodipodi:namedview
     pagecolor="#ffffff"
     bordercolor="#666666"
     borderopacity="1"
     objecttolerance="10"
     gridtolerance="10"
     guidetolerance="10"
     inkscape:pageopacity="0"
     inkscape:pageshadow="2"
     inkscape:window-width="1920"
     inkscape:window-height="1001"
     id="namedview3731"
     showgrid="false"
     inkscape:zoom="5.05"
     inkscape:cx="12.976484"
     inkscape:cy="-13.182678"
     inkscape:window-x="-9"
     inkscape:window-y="-9"
     inkscape:window-maximized="1"
     inkscape:current-layer="svg3729" />
  <title
     id="title3725">LinkedIn icon</title>
  <path
     d="m 20.506406,20.541109 h -3.554 v -5.569 c 0,-1.328 -0.027,-3.037 -1.852,-3.037 -1.853,0 -2.136,1.445 -2.136,2.939 v 5.667 h -3.554 V 9.0891091 h 3.414 v 1.5609999 h 0.046 c 0.477,-0.8999999 1.637,-1.8499999 3.37,-1.8499999 3.601,0 4.267,2.3699999 4.267,5.4549999 v 6.286 z M 5.3964055,7.5221091 c -1.144,0 -2.063,-0.926 -2.063,-2.065 0,-1.138 0.92,-2.063 2.063,-2.063 1.14,0 2.064,0.925 2.064,2.063 0,1.139 -0.925,2.065 -2.064,2.065 z m 1.782,13.0189999 h -3.564 V 9.0891091 h 3.564 z M 22.284406,0.08910911 H 1.8304055 c -0.97900003,0 -1.77100003,0.774 -1.77100003,1.72899999 V 22.360109 c 0,0.956 0.792,1.729 1.77100003,1.729 H 22.281406 c 0.978,0 1.778,-0.773 1.778,-1.729 V 1.8181091 c 0,-0.95499999 -0.8,-1.72899999 -1.778,-1.72899999 z"
     id="path3727"
     style="fill:#f9f9f9"
     inkscape:connector-curvature="0" />
</svg>
